<svg aria-hidden="true" style="position: absolute; width: 0; height: 0; overflow: hidden;" version="1.1" xmlns="http://www.w3.org/2000/svg" xmlns:xlink="http://www.w3.org/1999/xlink">
<defs>
<symbol id="icon-Vector-5" viewBox="0 0 28 32">
<path fill="none" stroke="#ffcd29" style="stroke: var(--color1, #ffcd29)" stroke-linejoin="round" stroke-linecap="round" stroke-miterlimit="4" stroke-width="1.9394" d="M2.748 1.455h1.616c0.429 0 0.84 0.17 1.143 0.473s0.473 0.714 0.473 1.143v3.232h4.848v-3.232c0-0.429 0.17-0.84 0.473-1.143s0.714-0.473 1.143-0.473h3.232c0.429 0 0.84 0.17 1.143 0.473s0.473 0.714 0.473 1.143v3.232h4.849v-3.232c0-0.429 0.17-0.84 0.473-1.143s0.714-0.473 1.143-0.473h1.616c0.429 0 0.84 0.17 1.143 0.473s0.473 0.714 0.473 1.143v7.101c0 0.638-0.189 1.263-0.543 1.794l-2.146 3.219c-0.354 0.531-0.543 1.155-0.543 1.794v11.95c0 0.429-0.17 0.84-0.473 1.143s-0.714 0.473-1.143 0.473h-16.162c-0.429 0-0.84-0.17-1.143-0.473s-0.473-0.714-0.473-1.143v-11.95c0-0.638-0.189-1.263-0.543-1.794l-2.146-3.219c-0.354-0.531-0.543-1.155-0.543-1.794v-7.101c0-0.429 0.17-0.84 0.473-1.143s0.714-0.473 1.143-0.473z"></path>
</symbol>
<symbol id="icon-close" viewBox="0 0 29 32">
<path fill="none" stroke="#ffd700" style="stroke: var(--color2, #ffd700)" stroke-linejoin="miter" stroke-linecap="round" stroke-miterlimit="4" stroke-width="3.2" d="M5.063 3.2l21.662 25.6"></path>
<path fill="none" stroke="#ffd700" style="stroke: var(--color2, #ffd700)" stroke-linejoin="miter" stroke-linecap="round" stroke-miterlimit="4" stroke-width="3.2" d="M25.272 3.2l-22.070 25.248"></path>
</symbol>
<symbol id="icon-Vector-4" viewBox="0 0 32 32">
<path fill="#ffcd29" style="fill: var(--color1, #ffcd29)" d="M31.123 0.219h-10.521c-0.101 0-0.2 0.023-0.29 0.068s-0.169 0.109-0.231 0.189l-10.978 14.272-2.114-2.114c-0.183-0.184-0.401-0.33-0.641-0.429s-0.497-0.151-0.756-0.151c-0.26 0-0.517 0.051-0.756 0.151s-0.458 0.245-0.641 0.429l-2.083 2.086c-0.184 0.183-0.33 0.401-0.429 0.641s-0.151 0.497-0.151 0.756c0 0.26 0.051 0.517 0.151 0.756s0.245 0.458 0.429 0.641l3.751 3.746-5.066 5.068c-0.184 0.183-0.33 0.401-0.429 0.641s-0.151 0.497-0.151 0.756c0 0.26 0.051 0.517 0.151 0.756s0.245 0.458 0.429 0.641l2.084 2.081c0.183 0.184 0.401 0.33 0.641 0.429s0.497 0.151 0.756 0.151 0.517-0.051 0.756-0.151c0.24-0.1 0.458-0.245 0.641-0.429l5.063-5.066 3.75 3.751c0.183 0.184 0.401 0.33 0.641 0.429s0.497 0.151 0.756 0.151 0.517-0.051 0.756-0.151c0.24-0.1 0.457-0.245 0.641-0.429l2.086-2.088c0.184-0.183 0.33-0.401 0.429-0.641s0.151-0.497 0.151-0.756c0-0.26-0.051-0.517-0.151-0.756s-0.245-0.458-0.429-0.641l-2.117-2.102 14.272-10.979c0.081-0.062 0.146-0.142 0.19-0.234s0.067-0.192 0.066-0.294v-10.521c0-0.174-0.069-0.342-0.193-0.465s-0.291-0.193-0.465-0.193zM4.743 30.273c-0.061 0.061-0.134 0.11-0.213 0.143s-0.165 0.050-0.252 0.050-0.172-0.017-0.252-0.050c-0.080-0.033-0.152-0.082-0.213-0.143l-2.086-2.084c-0.061-0.061-0.11-0.134-0.143-0.213s-0.050-0.165-0.050-0.252c0-0.086 0.017-0.172 0.050-0.252s0.082-0.152 0.143-0.213l5.068-5.066 3.015 3.013-5.066 5.068zM18.438 25.94c0.061 0.061 0.11 0.134 0.143 0.214s0.050 0.166 0.050 0.252c0 0.087-0.017 0.172-0.050 0.252s-0.082 0.153-0.143 0.214l-2.088 2.086c-0.061 0.061-0.134 0.11-0.213 0.143s-0.165 0.050-0.252 0.050c-0.086 0-0.172-0.017-0.252-0.050s-0.152-0.082-0.213-0.143l-12.378-12.378c-0.061-0.061-0.11-0.134-0.143-0.213s-0.050-0.165-0.050-0.252c0-0.086 0.017-0.172 0.050-0.252s0.082-0.152 0.143-0.213l2.088-2.086c0.061-0.061 0.134-0.11 0.213-0.143s0.165-0.050 0.252-0.050c0.086 0 0.172 0.017 0.252 0.050s0.152 0.082 0.213 0.143l12.378 12.376zM30.466 11.069l-14.15 10.885-2.673-2.666 8.74-8.74c0.061-0.061 0.11-0.134 0.143-0.213s0.050-0.165 0.050-0.252-0.017-0.172-0.050-0.252c-0.033-0.080-0.081-0.152-0.143-0.213s-0.134-0.11-0.213-0.143-0.165-0.050-0.252-0.050c-0.086 0-0.172 0.017-0.252 0.050s-0.152 0.082-0.213 0.143l-8.74 8.74-2.671-2.673 10.89-14.15h9.534v9.534z"></path>
</symbol>
<symbol id="icon-Vector-3" viewBox="0 0 22 32">
<path fill="none" stroke="#ffcd29" style="stroke: var(--color1, #ffcd29)" stroke-linejoin="round" stroke-linecap="round" stroke-miterlimit="4" stroke-width="0.8" d="M9.4 18.48v13.12c-2.696-0.696-6.496-3.664-8.8-6.104 1.528-3.8 2.176-7.008 1.464-12.432-4.632-16.888 23.016-16.888 18.4 0-0.704 5.416-0.064 8.632 1.416 12.432-2.288 2.44-6.112 5.408-8.8 6.104v-13.12l5.456-4 0.144-2.192-7.48 1.416-7.344-1.432 0.144 2.192 5.4 4.016z"></path>
</symbol>
<symbol id="icon-Group" viewBox="0 0 32 32">
<path fill="none" stroke="#ffcd29" style="stroke: var(--color1, #ffcd29)" stroke-linejoin="round" stroke-linecap="round" stroke-miterlimit="4" stroke-width="1.1429" d="M13.693 14.923l-12.931 12.928 3.234 3.232 12.93-12.93"></path>
<path fill="none" stroke="#ffcd29" style="stroke: var(--color1, #ffcd29)" stroke-linejoin="round" stroke-linecap="round" stroke-miterlimit="4" stroke-width="1.1429" d="M13.693 14.923l2.155-2.156c0 0 0.539-4.849-4.849-10.235l1.615-1.615 12.931 8.619-1.615 1.615 2.153 2.156 1.617-1.615 3.771 3.77-7.543 7.543-3.771-3.771 1.617-1.615-2.155-2.156-2.694 2.694-3.232-3.232z"></path>
</symbol>
<symbol id="icon-Vector-2" viewBox="0 0 36 32">
<path fill="#ffcd29" style="fill: var(--color1, #ffcd29)" d="M35.886 20.114c0 0.182-0.072 0.356-0.201 0.485s-0.303 0.201-0.485 0.201h-3.429v3.429c0 0.182-0.072 0.356-0.201 0.485s-0.303 0.201-0.485 0.201c-0.182 0-0.356-0.072-0.485-0.201s-0.201-0.303-0.201-0.485v-3.429h-3.429c-0.182 0-0.356-0.072-0.485-0.201s-0.201-0.303-0.201-0.485c0-0.182 0.072-0.356 0.201-0.485s0.303-0.201 0.485-0.201h3.429v-3.429c0-0.182 0.072-0.356 0.201-0.485s0.303-0.201 0.485-0.201c0.182 0 0.356 0.072 0.485 0.201s0.201 0.303 0.201 0.485v3.429h3.429c0.182 0 0.356 0.072 0.485 0.201s0.201 0.303 0.201 0.485zM3.657 5.714h3.429v3.429c0 0.182 0.072 0.356 0.201 0.485s0.303 0.201 0.485 0.201c0.182 0 0.356-0.072 0.485-0.201s0.201-0.303 0.201-0.485v-3.429h3.429c0.182 0 0.356-0.072 0.485-0.201s0.201-0.303 0.201-0.485c0-0.182-0.072-0.356-0.201-0.485s-0.303-0.201-0.485-0.201h-3.429v-3.429c0-0.182-0.072-0.356-0.201-0.485s-0.303-0.201-0.485-0.201c-0.182 0-0.356 0.072-0.485 0.201s-0.201 0.303-0.201 0.485v3.429h-3.429c-0.182 0-0.356 0.072-0.485 0.201s-0.201 0.303-0.201 0.485c0 0.182 0.072 0.356 0.201 0.485s0.303 0.201 0.485 0.201zM25.6 27.657h-2.057v-2.057c0-0.182-0.072-0.356-0.201-0.485s-0.303-0.201-0.485-0.201c-0.182 0-0.356 0.072-0.485 0.201s-0.201 0.303-0.201 0.485v2.057h-2.057c-0.182 0-0.356 0.072-0.485 0.201s-0.201 0.303-0.201 0.485c0 0.182 0.072 0.356 0.201 0.485s0.303 0.201 0.485 0.201h2.057v2.057c0 0.182 0.072 0.356 0.201 0.485s0.303 0.201 0.485 0.201c0.182 0 0.356-0.072 0.485-0.201s0.201-0.303 0.201-0.485v-2.057h2.057c0.182 0 0.356-0.072 0.485-0.201s0.201-0.303 0.201-0.485c0-0.182-0.072-0.356-0.201-0.485s-0.303-0.201-0.485-0.201zM31.168 7.286l-23.882 23.883c-0.191 0.192-0.418 0.344-0.668 0.448s-0.518 0.157-0.789 0.157-0.539-0.053-0.789-0.157c-0.25-0.104-0.477-0.256-0.668-0.448l-3.542-3.547c-0.192-0.191-0.344-0.418-0.448-0.668s-0.157-0.518-0.157-0.789c0-0.271 0.053-0.539 0.157-0.789s0.256-0.477 0.448-0.668l23.883-23.878c0.191-0.192 0.418-0.344 0.668-0.448s0.518-0.157 0.789-0.157 0.539 0.053 0.789 0.157c0.25 0.104 0.477 0.256 0.668 0.448l3.54 3.547c0.386 0.386 0.602 0.909 0.602 1.455s-0.217 1.069-0.602 1.455zM23.259 13.257l-4.515-4.515-16.942 16.942c-0.128 0.129-0.2 0.303-0.2 0.484s0.072 0.356 0.2 0.484l3.545 3.547c0.064 0.064 0.139 0.114 0.223 0.149s0.172 0.052 0.263 0.052c0.090 0 0.179-0.018 0.263-0.052s0.159-0.085 0.223-0.149l16.942-16.942zM30.2 5.347l-3.547-3.547c-0.064-0.064-0.139-0.114-0.223-0.149s-0.172-0.052-0.263-0.052c-0.090 0-0.179 0.018-0.263 0.052s-0.159 0.085-0.223 0.149l-5.971 5.971 4.517 4.515 5.971-5.971c0.128-0.129 0.2-0.303 0.2-0.484s-0.072-0.356-0.2-0.484z"></path>
</symbol>
<symbol id="icon-Vector-1" viewBox="0 0 32 32">
<path fill="#ffcd29" style="fill: var(--color1, #ffcd29)" d="M16 0.211c-3.123 0-6.176 0.926-8.772 2.661s-4.62 4.201-5.815 7.086c-1.195 2.885-1.508 6.060-0.898 9.123s2.113 5.876 4.321 8.084c2.208 2.208 5.022 3.712 8.084 4.321s6.238 0.297 9.123-0.898c2.885-1.195 5.351-3.219 7.086-5.815s2.661-5.649 2.661-8.772c-0.005-4.186-1.67-8.2-4.63-11.16s-6.974-4.625-11.16-4.63zM16 30.526c-2.873 0-5.682-0.852-8.070-2.448s-4.251-3.865-5.35-6.519c-1.099-2.654-1.387-5.575-0.827-8.393s1.944-5.406 3.976-7.438 4.62-3.415 7.438-3.976c2.818-0.56 5.739-0.273 8.393 0.827s4.923 2.961 6.519 5.35 2.448 5.197 2.448 8.070c-0.004 3.851-1.536 7.544-4.259 10.267s-6.416 4.255-10.267 4.259zM23.296 7.856l-10.105 5.053c-0.122 0.062-0.221 0.161-0.283 0.283l-5.053 10.105c-0.048 0.096-0.071 0.203-0.066 0.311s0.037 0.212 0.094 0.304c0.057 0.092 0.136 0.167 0.23 0.22s0.2 0.080 0.308 0.080c0.098-0 0.195-0.023 0.283-0.066l10.105-5.053c0.122-0.062 0.221-0.161 0.283-0.283l5.053-10.105c0.060-0.119 0.080-0.253 0.059-0.384s-0.083-0.252-0.177-0.346c-0.094-0.094-0.215-0.156-0.346-0.177s-0.265-0-0.384 0.059zM18.053 18.053l-8.223 4.105 4.118-8.211 8.223-4.105-4.118 8.211z"></path>
</symbol>
<symbol id="icon-Vector" viewBox="0 0 48 32">
<path fill="#ffcd29" style="fill: var(--color1, #ffcd29)" d="M2.667 32c-0.756 0-1.388-0.256-1.899-0.768s-0.766-1.145-0.768-1.899c-0.002-0.754 0.254-1.387 0.768-1.899s1.147-0.768 1.899-0.768h42.667c0.755 0 1.389 0.256 1.901 0.768s0.767 1.145 0.765 1.899c-0.002 0.754-0.258 1.387-0.768 1.901s-1.143 0.769-1.899 0.765h-42.667zM2.667 18.667c-0.756 0-1.388-0.256-1.899-0.768s-0.766-1.145-0.768-1.899c-0.002-0.754 0.254-1.387 0.768-1.899s1.147-0.768 1.899-0.768h42.667c0.755 0 1.389 0.256 1.901 0.768s0.767 1.145 0.765 1.899c-0.002 0.754-0.258 1.388-0.768 1.901s-1.143 0.769-1.899 0.765h-42.667zM2.667 5.333c-0.756 0-1.388-0.256-1.899-0.768s-0.766-1.145-0.768-1.899c-0.002-0.754 0.254-1.387 0.768-1.899s1.147-0.768 1.899-0.768h42.667c0.755 0 1.389 0.256 1.901 0.768s0.767 1.145 0.765 1.899c-0.002 0.754-0.258 1.388-0.768 1.901s-1.143 0.769-1.899 0.765h-42.667z"></path>
</symbol>
<symbol id="icon-Vector-5" viewBox="0 0 28 32">
<path fill="none" stroke="#ffcd29" style="stroke: var(--color1, #ffcd29)" stroke-linejoin="round" stroke-linecap="round" stroke-miterlimit="4" stroke-width="1.9394" d="M2.748 1.455h1.616c0.429 0 0.84 0.17 1.143 0.473s0.473 0.714 0.473 1.143v3.232h4.848v-3.232c0-0.429 0.17-0.84 0.473-1.143s0.714-0.473 1.143-0.473h3.232c0.429 0 0.84 0.17 1.143 0.473s0.473 0.714 0.473 1.143v3.232h4.849v-3.232c0-0.429 0.17-0.84 0.473-1.143s0.714-0.473 1.143-0.473h1.616c0.429 0 0.84 0.17 1.143 0.473s0.473 0.714 0.473 1.143v7.101c0 0.638-0.189 1.263-0.543 1.794l-2.146 3.219c-0.354 0.531-0.543 1.155-0.543 1.794v11.95c0 0.429-0.17 0.84-0.473 1.143s-0.714 0.473-1.143 0.473h-16.162c-0.429 0-0.84-0.17-1.143-0.473s-0.473-0.714-0.473-1.143v-11.95c0-0.638-0.189-1.263-0.543-1.794l-2.146-3.219c-0.354-0.531-0.543-1.155-0.543-1.794v-7.101c0-0.429 0.17-0.84 0.473-1.143s0.714-0.473 1.143-0.473z"></path>
</symbol>
</defs>
</svg>
